# xmcd
#
# Track frame offsets:
#	150
#	13337
#	26764
#	44351
#	61323
#	80688
#	99923
#	118448
#	135329
#	148740
#	171258
#	191975
#
# Disc length: 2818
#
# Revision: 2
# Processed by: cddbd v1.5.1PL0 Copyright (c) Steve Scherf et al.
# Submitted via: audiograbber 1.81.03
# Normalized: r1:DSETVAR1
#
DISCID=b00b000c
DTITLE=Various Artist - HOMEWARD BOUND - Eddie Bauer
DYEAR=2002
DGENRE=
TTITLE0=Little Feat - Willin'
TTITLE1=Son Volt - Windfall
TTITLE2=Bonnie Rait - Cry Like A Rainstorm
TTITLE3=Richard Buckner - Blue And Wonder
TTITLE4=Emmylou Harris - Red Dirt Girl
TTITLE5=Bill Frisell - I Want To Go Home
TTITLE6=Rickie Lee Jones - The Last Chance Texaco
TTITLE7=Loy Reed - Perfect Day
TTITLE8=Kasey Chambers - A Little Bit Lonesome
TTITLE9=Guy Clark - L.A. Freeway
TTITLE10=Greg Brown - Pretty One More Time
TTITLE11=The Band - The Night They Drove Old Dixie Down (Live)
EXTD=
EXTT0=
EXTT1=
EXTT2=
EXTT3=
EXTT4=
EXTT5=
EXTT6=
EXTT7=
EXTT8=
EXTT9=
EXTT10=
EXTT11=
PLAYORDER=
